<?xml version="1.0" encoding="UTF-8"?>
<svg id="Camada_1" xmlns="http://www.w3.org/2000/svg" version="1.1" viewBox="0 0 1350 550">
  <!-- Generator: Adobe Illustrator 29.7.1, SVG Export Plug-In . SVG Version: 2.1.1 Build 8)  -->
  <defs>
    <style>
      .st0, .st1 {
        fill: #fff;
      }

      .st1 {
        fill-rule: evenodd;
      }
    </style>
  </defs>
  <path class="st1" d="M419.8,208c-28.7-.3-58.2-.5-88.6-.8-31.2-.3-63.4-.5-96.5-.8-34.2-.3-69.3-.6-105.5-.9v232.4c0,42,33.2,72.3,72.7,67.8,22.6-2.6,44.8-5.1,66.5-7.6,21.3-2.5,42.3-4.8,62.8-7.2,20.1-2.3,39.8-4.6,59.2-6.8,19.1-2.2,37.8-4.4,56.1-6.5,30.5-3.5,54.8-35,54.8-70.4v-198.6c-26.5-.2-53.7-.5-81.6-.7ZM338,431.5c-.8,0-2.2,0-6.2-.7q0,0-.1,0c-1.7-.3-3.1-.6-4-.8-9.9-2.3-18.3-7.1-24.9-12.3s-11.6-10.6-14.8-14c-7.2-8.5-16.2-19-25.5-31-2.1-2.7-5.3-7-8.8-11.8-10.1-14-13.7-21.4-27-44.1,0,0-24.6-42-20.1-52.4.1-.2.2-.3.2-.3,0,0,0-.1,0-.1,2.9-6.5,6.1-8.4,6.1-8.4.1-.1.3-.2.4-.3.5.9,1,1.7,1.4,2.6,9.3,18.2,24.4,49.8,37.8,72.3,12.1,20.2,24.7,39.6,37.1,55.9,14.7,19.3,29,34.4,41.7,41.4h0c1,.7,2.1,1.3,3.3,1.9,1.4.8,2.7,1.4,3.9,1.9-.3,0-.5,0-.7,0ZM351,430.3c-2.7.6-5.4,1-8.1,1.2h-.4c-2.3-1.1-4.6-2.2-6.9-3.3h0c-13.6-6.1-30.2-23.4-46.8-45.9-13-17.5-25.9-38.1-37.4-58.8-12.7-22.9-26.2-50.4-34.4-67.2-.5-.8-.9-1.6-1.3-2.5,4.5-2.6,9.6-4.6,14.6-6.2.4.7.8,1.3,1.1,2,7.1,13,20.8,41.6,34.9,69,6.8,13.2,14.3,26.6,22.2,39.2,21.2,34.3,44.5,63.1,61.5,69.9h0c1.5.5,3,1.1,4.5,1.6-1.2.4-2.4.7-3.5.9ZM367.5,423.4c-2.6,1.6-5.2,3-7.9,4.1-.7.4-1.5.7-2.3.9-1.5-.4-2.9-.8-4.4-1.2-16.9-4.7-41.6-37.1-63.7-73.6-7.4-12.4-14.6-25.2-21.1-37.6-14.3-27.5-27.2-53.3-33.7-67.2-.4-.7-.8-1.3-1.2-2,2.6-.7,5.3-1.4,8.3-1.9,2.7-.6,5.4-1,7.8-1.3.5,1.1,1,2.1,1.5,3.2,12,25.7,21.5,43.6,33.5,66.8,4.6,8.8,8.1,15.6,11,21.1h0c3.3,6.4,5.7,11.1,7.9,15.4,0,0,23.9,47.3,43.1,64.1,8.8,7.7,16.7,8.7,18.4,8.9,1.3.2,2.5.2,3.4.2-.2.2-.3.3-.5.4ZM376.6,416.4c-.7.6-1.4,1.3-2.2,1.8-1.3,1.1-2.6,2.2-3.9,3.1-1.1,0-2.2,0-3.3,0-20.4,1.7-47.2-43.6-70.8-89.2-3.2-6.3-6.4-12.5-9.5-18.6-15.9-31.5-23.7-46.5-32.9-67.5-.6-1.2-1-2.3-1.3-2.9,2.6-.2,5.3-.3,8.2-.3,3.1,0,6,0,8.8.1.4,1,.8,1.9,1.3,2.9,6.8,15,18.7,42,30.6,65.9,1.2,2.3,2.3,4.6,3.5,7,21.2,42.8,44,88.1,63.6,94.8,1.7.6,3.4.9,5,.8.7,0,1.3,0,1.6,0,.9-.1,2.3-.3,4-.8.2,0,.3-.1.4-.2-1,1-1.9,2-3,3ZM381.7,411.2c-.6.2-1.2.5-1.9.7,0,0-2,.6-4.1.8,0,0-3.1.3-6.6-.7-18.5-5.4-51.4-72-62.4-95.3-2.4-5-3.7-8.1-3.7-8.1-10.4-21.4-21.7-46.8-28.7-62.6-.4-.8-1.1-2.3-1.4-3.1,3.1.2,6.5.6,9.9,1,3.2.5,6.2.9,9.1,1.4.4,1.1.8,2.2,1.2,3.3,5.9,14.6,14,35,24.1,57.6.1.2.2.4.3.5,19.7,44,40.9,92.4,59,99.3,1.5.6,2.9.9,4.4.9s1.1,0,2.4-.3c.7-.2,1.6-.4,2.7-.8-1.3,1.8-2.7,3.6-4.2,5.2ZM391,397.7c-.5.9-1,1.7-1.4,2.6-.7,1.1-1.4,2.3-2.1,3.3-1,.4-1.9.8-2.8,1.2-2.5,1-5.1,1-7.8,0-17.3-6.7-38.4-55.6-57.5-99.2l-.9-2.2c-8.8-20.1-16.1-38.8-22.2-54-.3-.7-.8-1.9-1.4-3.4,3.4.7,7.1,1.7,10.9,2.9,3.1.9,5.9,1.9,8.6,3,.6,1.3,1.2,2.6,1.8,3.9,4.9,13,10.8,28.6,16.4,43.2,1.6,4.2,3.2,8.4,4.8,12.4,16.8,43.6,32.5,84.6,48,86h.7c1.2,0,2.4-.1,3.5-.5.7-.2,1.4-.4,2.2-.6-.2.5-.5,1-.7,1.4ZM425.3,317.1c-4.5,6.6-8.3,13-11.5,19-2.9,6.2-5.7,13-8.5,20.4-2.7,7.4-5,14.6-6.9,21.2h0c-.6,2.5-1.2,4.8-1.9,7.1-1.1,3.4-2.4,6.6-3.8,9.7-.8.3-1.5.5-2.3.8-1.7.7-3.4.8-5,.7-14.6-1.3-30.2-41.9-46.8-85.1-1.5-3.9-3.1-8.1-4.7-12.3-5.3-14.1-10.8-29-15.5-41.7-.5-1.3-1-2.6-1.5-3.9,3.1,1.3,6.4,3,9.6,4.9,4.6,2.7,7.3,5,9.6,7.3,3,3.1,4.9,6.2,6.2,8.5h0c1.6,3.3,6.7,20.1,7.4,22.8.1.3.1.4.1.4.9,3,.4.9,4.6,13.3.9,2.7,3.3,9.6,4.4,12.7,0,.2.5,1.4,1,2.9.6,1.7.9,2.8,1.3,3.9,8.5-6.2,21.3-14,38.6-19.1,13.4-3.9,25.3-5,34.3-5.1-2.9,3.6-5.8,7.5-8.7,11.7Z"/>
  <path class="st1" d="M429.8,309.2c-12.2,15.2-19.9,29.8-25.4,45.1-1,2.3-2.3,6.5-4,11-2.4,4.5-4.8,7.5-6.5,9.4-.3.4-3.3,3.4-5.7,3.7,17.4-45.7,34-63.2,41.6-69.2Z"/>
  <path class="st1" d="M431.3,306.8c-6.2,4.1-24.6,19.7-44.4,71.6-1.5-.3-2.8-1.1-3.2-1.4,0,0-1.5-1-3.3-3.2-.2-.3-.4-.5-.5-.7,21.1-47.2,43.7-62.4,51.4-66.4Z"/>
  <path class="st1" d="M429.3,306.7c-8.9,4.8-30,20.5-50.2,65.3-1.3-1.9-2.3-3.6-3.2-5.1-.4-.8-.7-1.3-.8-1.5-.3-.6-.5-1.1-.8-1.6,20.9-39,45.3-52.9,55-57.1Z"/>
  <path class="st1" d="M426.2,306.9c-4.1,1.9-9.5,4.8-15,9.1-9.4,7.4-23.8,21.4-37.4,46.4-.1-.2-.2-.5-.4-.7-1.1-2.4-2.4-5.4-3.1-7.3,21.7-33.3,46.6-44.4,56-47.5Z"/>
  <path class="st1" d="M422.8,307.2c-4.2,1.5-9.9,4.1-16,7.9-10,6.3-23.6,17.4-37,38-.2-.4-.3-.7-.3-.7-.3-.6-.5-1.1-.6-1.5-.3-.7-1.1-2.9-2.4-6.3,14.6-17.1,29.8-26.6,40.6-31.7,5.1-2.5,10.7-4.4,15.6-5.7Z"/>
  <path class="st1" d="M416.7,308c-3.4,1.1-6.8,2.5-10.2,4.1-10.8,5-25.9,14.5-40.5,31.2-.3-.8-.6-1.5-.9-2.4-.2-.6-.4-1.1-.5-1.4-.5-1.2-.8-2.3-1.2-3.4,18.9-17.4,41.1-25.1,53.2-28.1Z"/>
  <path class="st1" d="M410.7,308.7c-12.6,3.8-31.3,11.5-47.6,26.4-.5-1.4-.9-2.7-1.3-3.8,12.1-8.4,29-17.8,48.9-22.5Z"/>
  <path class="st1" d="M406.1,57.7c6,.5,10.9,6.8,10.9,13.7,0,20.7,0,41.4,0,62.1,0,6.8-4.9,12.4-10.9,12.1-6-.3-11-6.3-11-13.3,0-20.9,0-41.8,0-62.8s5-12.4,11-11.8M501.3,195.9v-37.5c0-35.3-24.4-66.1-54.8-68.5-5.7-.4-11.5-.9-17.2-1.3v27.1c2.9,5.3,4.6,5.9,4.6,18,0,12.1-12.2,31.5-27.8,30.9-15.6-.6-28.5-21.5-28.5-34s1.8-12.9,4.8-17.9v-27.8c-16.7-1.3-33.8-2.6-51.1-3.9-17.6-1.3-35.5-2.7-53.7-4.1v29.1c3.4,5.7,5.3,6.3,5.3,19.3s-14.1,33.8-32.1,33.1c-18-.7-33.1-23.3-33.1-36.7s2.1-13.8,5.6-19.2v-29.9c-7.1-.5-14.1-1.1-21.3-1.6-39.5-3-72.8,28.7-72.8,70.8v44.6c36.2.9,71.4,1.8,105.5,2.7,33.1.8,65.3,1.6,96.5,2.4,30.3.8,59.8,1.5,88.5,2.3,27.9.7,55.1,1.4,81.6,2.1ZM250.7,43.6c6.9.6,12.5,7.4,12.5,14.8v66.7c0,7.4-5.6,13.2-12.5,12.9-7-.3-12.8-6.8-12.8-14.3V56.2c0-7.5,5.7-13.3,12.8-12.6Z"/>
  <path class="st1" d="M125.3,482.9c-27.8-4.5-48.8-28.7-48.8-60.4V157.2c0-32.1,21.7-57.5,50-62.6-7.3,14.2-11.4,30.4-11.4,47.4v296c0,16.2,3.7,31.4,10.2,44.9Z"/>
  <g>
    <path class="st0" d="M647.9,401.3c-7.9,4.6-19.3,6.9-34.3,6.9s-31.6-5.3-42.4-15.9c-10.8-10.6-16.2-24.2-16.2-40.9s5.8-34.5,17.4-45.6c11.6-11.1,27-16.7,46.4-16.7s23.1,1.8,29.1,5.3v29.7c-7.3-5.5-15.5-8.2-24.5-8.2s-18,2.9-23.9,8.8c-5.9,5.9-8.8,14-8.8,24.3s2.8,18,8.4,23.7c5.6,5.7,13.3,8.6,23.2,8.6s17.3-2.7,25.6-8.2v28.2Z"/>
    <path class="st0" d="M705.9,405.4h-35v-168.1h35v168.1Z"/>
    <path class="st0" d="M753.1,273.9c-5.9,0-10.8-1.8-14.5-5.3s-5.7-7.8-5.7-12.9,1.9-9.5,5.7-12.9,8.6-5,14.5-5,10.8,1.7,14.6,5c3.7,3.3,5.6,7.6,5.6,12.9s-1.9,9.7-5.6,13.1c-3.7,3.4-8.6,5.1-14.6,5.1ZM770.4,405.4h-35v-113.6h35v113.6Z"/>
    <path class="st0" d="M902,358.6h-74.1c1.2,16.5,11.6,24.7,31.2,24.7s23.5-3,32.9-8.9v25.3c-10.5,5.6-24.1,8.4-40.9,8.4s-32.6-5.1-42.7-15.2c-10.1-10.2-15.2-24.3-15.2-42.5s5.5-33.8,16.4-44.8c10.9-11,24.4-16.5,40.4-16.5s29.4,4.9,38.4,14.7c9.1,9.8,13.6,23.2,13.6,40v14.7ZM869.5,337.1c0-16.3-6.6-24.4-19.7-24.4s-10.5,2.3-14.6,7c-4.1,4.7-6.6,10.5-7.5,17.4h41.8Z"/>
    <path class="st0" d="M1032.5,405.4h-34.9v-63.1c0-17.6-6.3-26.4-18.9-26.4s-11.1,2.3-15,7c-3.9,4.7-5.9,10.6-5.9,17.7v64.8h-35v-113.6h35v18h.4c8.4-13.8,20.5-20.7,36.5-20.7,25.1,0,37.7,15.6,37.7,46.8v69.5Z"/>
    <path class="st0" d="M1128.9,404.1c-5.2,2.7-13,4.1-23.4,4.1-24.7,0-37-12.8-37-38.5v-52h-18.4v-25.8h18.4v-24.5l34.9-10v34.5h25.5v25.8h-25.5v45.9c0,11.8,4.7,17.7,14.1,17.7s7.5-1.1,11.4-3.2v25.9Z"/>
    <path class="st0" d="M1250.6,358.6h-74.1c1.2,16.5,11.6,24.7,31.2,24.7s23.5-3,32.9-8.9v25.3c-10.5,5.6-24.1,8.4-40.9,8.4s-32.6-5.1-42.7-15.2c-10.1-10.2-15.2-24.3-15.2-42.5s5.5-33.8,16.4-44.8c10.9-11,24.4-16.5,40.4-16.5s29.4,4.9,38.4,14.7c9.1,9.8,13.6,23.2,13.6,40v14.7ZM1218.1,337.1c0-16.3-6.6-24.4-19.7-24.4s-10.5,2.3-14.6,7c-4.1,4.7-6.6,10.5-7.5,17.4h41.8Z"/>
  </g>
  <g>
    <path class="st0" d="M767.9,203c0,5.5-1.8,10-5.3,13.5l9.3,9h-13.4l-4.5-4.6c-1.3.3-2.7.4-4.1.4-3.3,0-6.3-.8-9.1-2.3-2.7-1.5-4.8-3.6-6.3-6.3s-2.3-5.8-2.3-9.2.8-6.8,2.3-9.7,3.7-5.1,6.4-6.7c2.8-1.6,5.9-2.4,9.4-2.4s6.4.8,9.1,2.3,4.7,3.6,6.2,6.4,2.2,5.9,2.2,9.5ZM756.6,203.3c0-2.9-.6-5.2-1.7-6.9-1.1-1.7-2.6-2.5-4.6-2.5s-3.8.8-5,2.4c-1.2,1.6-1.8,3.9-1.8,6.8s.6,5.1,1.8,6.7,2.8,2.4,4.8,2.4,3.5-.8,4.7-2.4c1.2-1.6,1.8-3.8,1.8-6.6Z"/>
    <path class="st0" d="M803.7,204.6c0,5.7-1.3,9.9-3.9,12.6-2.6,2.8-6.6,4.1-12,4.1s-8.8-1.4-11.4-4.1c-2.6-2.8-3.9-6.9-3.9-12.4v-19.4h10.7v19.8c0,2.3.4,4,1.3,5.2s2.1,1.8,3.6,1.8,2.8-.6,3.6-1.7c.8-1.1,1.2-2.8,1.2-5.1v-20h10.7v19.2Z"/>
    <path class="st0" d="M810.2,220.8v-35.3h10.6v35.3h-10.6Z"/>
    <path class="st0" d="M852.5,220.8l-12.5-17.1c-1-1.3-1.8-2.6-2.4-3.6h-.1c.1,1.7.1,3.7.1,5.9v14.8h-9.9v-35.3h10.1l12,16.2c.1.2.3.5.5.8s.4.6.6.9c.2.3.4.6.6.9.2.3.3.6.4.8h0c0-.7-.1-2-.1-3.7v-15.8h9.9v35.3h-9.3Z"/>
    <path class="st0" d="M880.5,212.5h16v8.3h-29.7v-7.5l16.3-19.5h-15.3v-8.3h28.1v7.4l-15.5,19.6Z"/>
    <path class="st0" d="M901.2,220.8v-35.3h22v8.3h-11.4v5.2h10.7v8.3h-10.7v5.2h12.2v8.3h-22.8Z"/>
    <path class="st0" d="M953.7,220.8l-12.5-17.1c-1-1.3-1.8-2.6-2.4-3.6h-.1c.1,1.7.1,3.7.1,5.9v14.8h-9.9v-35.3h10.1l12,16.2c.1.2.3.5.5.8s.4.6.6.9c.2.3.4.6.6.9.2.3.3.6.4.8h0c0-.7-.1-2-.1-3.7v-15.8h9.9v35.3h-9.3Z"/>
    <path class="st0" d="M992.2,220.8l-1.6-6.5h-10.5l-1.7,6.5h-11.5l12.2-35.3h13.2l11.5,35.3h-11.6ZM985.5,193.1h-.3c0,.4-.1,1-.3,1.9-.2.9-1.2,4.8-3,11.6h6.8l-2.5-9.6c-.3-1.4-.6-2.7-.7-4Z"/>
    <path class="st0" d="M1055.2,202.7c0,3.6-.8,6.7-2.3,9.5s-3.7,4.9-6.4,6.4c-2.8,1.5-6,2.2-9.7,2.2h-15v-35.3h14.6c12.5,0,18.7,5.7,18.7,17.2ZM1043.9,202.8c0-1.7-.4-3.3-1-4.7-.7-1.4-1.7-2.4-3-3.2-1.3-.8-2.8-1.1-4.6-1.1h-2.7v18.7h3c2.5,0,4.6-.9,6.1-2.6,1.5-1.8,2.3-4.1,2.3-7.1Z"/>
    <path class="st0" d="M1093.8,203c0,3.6-.8,6.7-2.3,9.5-1.5,2.8-3.7,5-6.4,6.5s-5.8,2.3-9.2,2.3-6.3-.8-9.1-2.3c-2.7-1.5-4.8-3.6-6.3-6.3s-2.3-5.8-2.3-9.2.8-6.8,2.3-9.7,3.7-5.1,6.4-6.7c2.8-1.6,5.9-2.4,9.4-2.4s6.4.8,9.1,2.3,4.7,3.6,6.2,6.4,2.2,5.9,2.2,9.5ZM1082.5,203.3c0-2.9-.6-5.2-1.7-6.9-1.1-1.7-2.6-2.5-4.6-2.5s-3.8.8-5,2.4c-1.2,1.6-1.8,3.9-1.8,6.8s.6,5.1,1.8,6.7,2.8,2.4,4.8,2.4,2.3-.4,3.3-1.1c1-.7,1.7-1.8,2.3-3.1.5-1.3.8-2.9.8-4.8Z"/>
  </g>
</svg>